<?xml version="1.0" encoding="utf-8"?>
<!-- Generator: Adobe Illustrator 26.5.0, SVG Export Plug-In . SVG Version: 6.00 Build 0)  -->
<svg version="1.0" id="katman_1" xmlns="http://www.w3.org/2000/svg" xmlns:xlink="http://www.w3.org/1999/xlink" x="0px" y="0px"
	 viewBox="0 0 1190.55 841.89" style="enable-background:new 0 0 1190.55 841.89;" xml:space="preserve">
<style type="text/css">
	.st0{fill:#010202;}
	.st1{fill:#FCC02B;}
</style>
<path class="st0" d="M919.9,358.5c9.69,0,17.55-7.53,17.55-16.81c0-9.28-7.86-16.81-17.55-16.81c-9.69,0-17.55,7.53-17.55,16.81
	C902.35,350.97,910.21,358.5,919.9,358.5z"/>
<path class="st0" d="M540.43,494.73c-38.63,0-66.66-25.94-66.66-61.64c0-35.71,28.03-61.44,66.66-61.44
	c18.82,0,35.87,6.12,48.03,17.21c12.16,11.1,18.89,26.85,18.89,44.22c0,17.38-6.72,33.12-18.89,44.34
	C576.3,488.63,559.24,494.73,540.43,494.73z M540.43,398.45c-20.08,0-34.09,14.24-34.09,34.62c0,20.38,14.02,34.62,34.09,34.62
	c20.53,0,34.31-13.91,34.31-34.62c0-20.71-13.78-34.65-34.31-34.65V398.45z"/>
<path class="st0" d="M653.99,327.53h-32.34v165.66h32.34V327.53z"/>
<path class="st0" d="M702.68,327.53h-32.34v165.66h32.34V327.53z"/>
<path class="st0" d="M783.69,494.73c-38.63,0-66.66-25.94-66.66-61.64c0-35.71,28.03-61.44,66.66-61.44
	c18.82,0,35.87,6.12,48.03,17.21c12.16,11.1,18.89,26.85,18.89,44.22c0,17.38-6.72,33.12-18.89,44.34
	C819.56,488.63,802.48,494.73,783.69,494.73z M783.69,398.45c-20.08,0-34.1,14.24-34.1,34.62c0,20.38,14.02,34.62,34.1,34.62
	c20.53,0,34.31-13.91,34.31-34.62c0-20.71-13.78-34.65-34.31-34.65V398.45z"/>
<path class="st0" d="M936.07,371.63h-32.33v121.56h32.33V371.63z"/>
<path class="st0" d="M1019.08,494.73c-38.62,0-66.65-25.94-66.65-61.64c0-35.71,28.03-61.44,66.65-61.44
	c18.83,0,35.87,6.12,48.03,17.21c12.16,11.1,18.89,26.85,18.89,44.22c0,17.38-6.72,33.12-18.89,44.34
	C1054.95,488.63,1037.89,494.73,1019.08,494.73z M1019.08,398.45c-20.07,0-34.09,14.24-34.09,34.62c0,20.38,14.03,34.62,34.09,34.62
	c20.53,0,34.32-13.91,34.32-34.62c0-20.71-13.8-34.65-34.32-34.65V398.45z"/>
<path class="st0" d="M329.14,536.42V370.76h32.34v8.8c10.58-5.32,22.37-8.04,34.31-7.93c18.83,0,35.87,6.12,48.03,17.21
	c12.16,11.1,18.89,26.85,18.89,44.22c0,17.38-6.72,33.12-18.89,44.33c-12.16,11.22-29.19,17.32-48.03,17.32
	c-11.95,0.11-23.75-2.63-34.31-7.99v49.68H329.14z M395.79,398.42c-20.07,0-34.09,14.24-34.09,34.62
	c0,20.38,14.03,34.62,34.09,34.62c20.53,0,34.32-13.91,34.32-34.62C430.11,412.33,416.31,398.42,395.79,398.42z"/>
<path class="st0" d="M872.83,493.18c-2.75,0-5.44-0.78-7.73-2.24c-2.29-1.46-4.07-3.54-5.13-5.98c-1.05-2.44-1.33-5.11-0.79-7.7
	c0.54-2.58,1.86-4.96,3.81-6.82c1.94-1.86,4.42-3.13,7.12-3.65c2.7-0.51,5.5-0.25,8.04,0.76c2.54,1.01,4.71,2.72,6.24,4.91
	c1.53,2.19,2.34,4.77,2.34,7.4c-0.01,3.53-1.47,6.91-4.08,9.41C880.05,491.77,876.52,493.18,872.83,493.18z"/>
<path class="st1" d="M286.2,341.01h-30.52l15.82,26.24L286.2,341.01z"/>
<path class="st0" d="M303.41,446.35l-20.62-34.26l-65.08-107.51L104,493.18h60.9c8.14-0.01,16.13-2.05,23.19-5.92
	c7.06-3.87,12.94-9.44,17.07-16.16l31.13-52.01L219,390.42l-37.58,62.65c-2.13,3.48-5.17,6.36-8.82,8.36
	c-3.65,2.01-7.78,3.06-11.99,3.07h-4.62l61.74-102.41l79.05,131.09h22.41v-20.87l-15.7-25.95H303.41z"/>
</svg>
