<?xml version="1.0" encoding="UTF-8"?>
<svg version="1.1" xmlns="http://www.w3.org/2000/svg" width="512" height="512">
<path d="M0 0 C12.16863777 8.34825149 21.48145655 20.04693493 24.25 34.8125 C25.14814317 41.34445036 25.45720956 47.04604988 24.0625 53.5 C23.64502667 56.19699127 23.64502667 56.19699127 24.25 58.8125 C27.15820171 62.35582622 30.63144042 64.89528197 34.36425781 67.49267578 C36.97817871 69.32214967 39.51303738 71.25037173 42.05761719 73.17456055 C44.08553244 74.70488091 46.12446128 76.21967827 48.1640625 77.734375 C52.80284933 81.20299755 57.31356583 84.82203805 61.82226562 88.45703125 C66.2161572 91.99617 70.65588479 95.46336237 75.13671875 98.89208984 C79.7545761 102.42641982 84.34885465 105.99033604 88.9375 109.5625 C90.07989136 110.45171143 90.07989136 110.45171143 91.24536133 111.35888672 C92.80345805 112.57184681 94.36148163 113.78490086 95.91943359 114.99804688 C99.69517266 117.93763338 103.47265535 120.87497715 107.25 123.8125 C108.75000877 124.97915539 110.25000876 126.14582207 111.75 127.3125 C112.4925 127.89 113.235 128.4675 114 129.0625 C156.75 162.3125 156.75 162.3125 159.00366211 164.06591797 C160.49071806 165.22213993 161.97850116 166.37742734 163.46704102 167.53173828 C167.4218225 170.60058968 171.35947765 173.68880323 175.27734375 176.8046875 C176.09912109 177.454375 176.92089844 178.1040625 177.76757812 178.7734375 C179.35037438 180.02536674 180.92870595 181.28296672 182.50195312 182.546875 C183.21158203 183.10632813 183.92121094 183.66578125 184.65234375 184.2421875 C185.27616943 184.73960449 185.89999512 185.23702148 186.54272461 185.74951172 C188.33926001 187.07677345 188.33926001 187.07677345 191.25 186.8125 C193.40439977 185.50733536 193.40439977 185.50733536 195.6875 183.75 C211.04602842 172.77647467 232.72898937 160.8125 252.25 160.8125 C252.25 140.6825 252.25 120.5525 252.25 99.8125 C250.27 99.1525 248.29 98.4925 246.25 97.8125 C234.48569524 89.22059203 227.65718687 78.0836793 225.25 63.8125 C224.33619826 48.78789926 227.55540354 36.17079134 237.4375 24.5 C247.44156153 14.04197265 258.52510814 9.54709119 272.7578125 8.8125 C283.79778855 8.8125 294.39488731 12.17116548 303.25 18.8125 C304.7040625 19.864375 304.7040625 19.864375 306.1875 20.9375 C314.2413001 27.84981663 320.48671297 39.15419307 321.42700195 49.8203125 C321.88637697 65.69162795 319.97867053 77.9688533 309.109375 90.2265625 C303.08894463 96.51320237 303.08894463 96.51320237 298.65380859 98.09545898 C296.70053398 99.08432597 296.70053398 99.08432597 295.25 100.8125 C294.15503911 105.29052654 294.2970034 109.73805673 294.34765625 114.328125 C294.3382693 115.66764753 294.32581032 117.00715176 294.31040955 118.34661865 C294.27818808 121.86512238 294.28762249 125.3823226 294.30578613 128.90087891 C294.31694603 132.49396012 294.28863908 136.08670783 294.26367188 139.6796875 C294.2205282 146.72413049 294.22139508 153.76795339 294.25 160.8125 C295.13455368 160.94264496 296.01910736 161.07278992 296.9304657 161.20687866 C298.09511856 161.38143585 299.25977142 161.55599304 300.4597168 161.73583984 C301.61239548 161.9072348 302.76507416 162.07862976 303.9526825 162.25521851 C308.1396901 162.96286703 312.05798905 164.04726 316.0625 165.4375 C316.8160376 165.69474854 317.5695752 165.95199707 318.34594727 166.21704102 C334.57321832 171.9599909 349.09514458 180.76242145 362.25 191.8125 C362.9615625 192.4003125 363.673125 192.988125 364.40625 193.59375 C386.76135149 212.50960511 399.97466166 239.70313323 406.25 267.8125 C406.4975 268.885 406.745 269.9575 407 271.0625 C413.33646826 304.15294536 404.39007582 340.51356209 385.96484375 368.32421875 C365.42102356 398.36728322 334.73478477 418.21511908 299.25 425.6875 C261.80116925 431.78999165 227.83744751 423.11378251 196.01538086 403.17211914 C194.95244057 402.50642662 194.95244057 402.50642662 193.86802673 401.82728577 C193.33407791 401.49240646 192.80012909 401.15752716 192.25 400.8125 C186.05557818 406.49298017 179.92616463 412.23369554 173.86588287 418.05674934 C171.04839957 420.76025393 168.2147731 423.43991778 165.33056641 426.07226562 C151.25845162 437.95558857 151.25845162 437.95558857 143.88671875 453.92480469 C143.74625935 458.50957854 144.37984259 462.82502594 145.11317444 467.33644104 C145.44994318 473.43076478 142.83537739 479.73782526 139.3125 484.625 C138.78269531 485.36105469 138.25289062 486.09710938 137.70703125 486.85546875 C137.22621094 487.50128906 136.74539062 488.14710938 136.25 488.8125 C135.6725 489.67875 135.095 490.545 134.5 491.4375 C126.23384556 500.16288525 116.18470717 504.83641584 104.25952148 505.28344727 C90.51133791 505.44261001 80.73524302 501.99127504 70.25 492.8125 C60.71620682 482.60619859 57.62211731 470.69226824 57.93359375 457.05078125 C58.54299536 445.57924208 64.75131803 435.51909175 72.875 427.703125 C78.79567184 422.9899586 88.56512462 417.2308591 96.38475037 418.03091431 C97.13394241 418.16702118 97.88313446 418.30312805 98.6550293 418.44335938 C105.7875181 419.60256402 111.98849808 419.87020514 118.29156494 415.89355469 C125.66754779 409.93681399 132.08418182 403.00181326 138.47937012 396.02508545 C141.1356678 393.15157722 143.85459422 390.33863328 146.56835938 387.51953125 C151.85758826 382.00695448 157.07495521 376.4326443 162.25 370.8125 C161.01724599 366.98256559 159.77643653 363.79783106 157.5625 360.4375 C139.43854323 330.96945293 135.52009708 294.76970564 142.875 261.375 C146.13004638 247.84531508 151.54611691 234.67620863 159 222.9296875 C160.41946937 220.93523703 160.41946937 220.93523703 160.25 218.8125 C157.93165603 216.94198331 155.59995778 215.17963147 153.1875 213.4375 C147.55273629 209.29549299 142.00171872 205.08346342 136.5625 200.6875 C131.54203763 196.63882407 126.48553442 192.65245065 121.36328125 188.73291016 C116.7454239 185.19858018 112.15114535 181.63466396 107.5625 178.0625 C106.42010864 177.17328857 106.42010864 177.17328857 105.25463867 176.26611328 C103.69654195 175.05315319 102.13851837 173.84009914 100.58056641 172.62695312 C96.80482736 169.68736664 93.02736693 166.74999416 89.25 163.8125 C84.69050616 160.26677972 80.1314516 156.72050104 75.57421875 153.171875 C68.97798614 148.03655297 62.38031163 142.9037807 55.75 137.8125 C45.20002382 129.71043759 34.70301592 121.53925473 24.25 113.3125 C18.67485684 108.92700751 13.09170208 104.55186335 7.5 100.1875 C6.71238281 99.57068359 5.92476563 98.95386719 5.11328125 98.31835938 C4.37980469 97.74666016 3.64632812 97.17496094 2.890625 96.5859375 C2.23610352 96.07466309 1.58158203 95.56338867 0.90722656 95.03662109 C-0.74263395 93.74464178 -0.74263395 93.74464178 -2.75 92.8125 C-4.90246528 93.52612057 -7.02443286 94.33311202 -9.125 95.1875 C-22.69538367 100.67079273 -36.77493417 100.35907507 -50.32421875 94.74609375 C-64.91981162 87.97355984 -74.17681248 76.83979914 -79.75 61.8125 C-84.50863974 48.00995333 -82.024933 33.51255721 -76 20.625 C-68.80066993 6.98323765 -57.19323228 -1.18709417 -42.75 -6.1875 C-28.64820916 -10.22073572 -12.36906184 -7.33613323 0 0 Z M224.3828125 248.375 C212.44901524 262.01362544 207.63356566 278.99680844 207.94140625 296.8515625 C209.40148933 315.59237573 217.85205745 332.11575098 231.5 345 C245.30001301 356.71699218 261.27250006 361.80948184 279.20166016 360.98730469 C293.88408401 359.73431119 307.16082618 351.00586494 317.25 340.8125 C317.94738281 340.14863281 318.64476562 339.48476563 319.36328125 338.80078125 C332.08863395 325.82833432 336.78141498 308.44570946 336.67016602 290.74145508 C336.14683458 272.04698613 328.2481242 255.40910538 314.7890625 242.44140625 C305.17938129 234.08577434 293.81277288 228.16801992 281.25 225.8125 C279.88875 225.54759766 279.88875 225.54759766 278.5 225.27734375 C257.64771633 222.35915731 238.37009129 233.94909574 224.3828125 248.375 Z " fill="#FE7958" transform="translate(92.75,7.1875)"/>
</svg>
